<?xml version="1.0" encoding="utf-8"?>
<!-- Generator: Adobe Illustrator 19.0.0, SVG Export Plug-In . SVG Version: 6.00 Build 0)  -->
<svg version="1.1" xmlns="http://www.w3.org/2000/svg" xmlns:xlink="http://www.w3.org/1999/xlink" x="0px" y="0px"
	 viewBox="0 0 204.9 204.9" style="enable-background:new 0 0 204.9 204.9;" xml:space="preserve">
<style type="text/css">
	.st0{fill:#864C2D;}
	.st1{fill:#FFFFFF;}
</style>
<g id="_x31_">
	<g>
		<path id="XMLID_115_" class="st0" d="M204.9,102.5c0,56.6-45.9,102.5-102.5,102.5C45.9,204.9,0,159,0,102.5C0,45.9,45.9,0,102.5,0
			C159,0,204.9,45.9,204.9,102.5z"/>
		<path class="st1" d="M139.7,41.8H65.2c-12.9,0-23.5,10.5-23.5,23.5V90v9.1v40.6c0,12.9,10.5,23.5,23.5,23.5h74.5
			c12.9,0,23.5-10.5,23.5-23.5V99.1V90V65.2C163.1,52.3,152.6,41.8,139.7,41.8z M146.4,55.8l2.7,0v2.7v17.9l-20.5,0.1l-0.1-20.6
			L146.4,55.8z M85.1,90c3.9-5.4,10.2-8.9,17.3-8.9c7.1,0,13.4,3.5,17.3,8.9c0.5,0.7,0.9,1.3,1.3,2c1.7,3.1,2.8,6.6,2.8,10.4
			c0,11.8-9.6,21.4-21.4,21.4c-11.8,0-21.4-9.6-21.4-21.4c0-3.8,1-7.3,2.8-10.4C84.3,91.3,84.7,90.7,85.1,90z M151.3,139.7
			c0,6.4-5.2,11.6-11.6,11.6H65.2c-6.4,0-11.6-5.2-11.6-11.6V96.3V90h18.1c-0.5,1.1-0.8,2.3-1.2,3.4c-0.8,2.9-1.3,5.9-1.3,9
			c0,18.3,14.9,33.2,33.2,33.2c18.3,0,33.2-14.9,33.2-33.2c0-3.1-0.5-6.2-1.3-9c-0.3-1.2-0.7-2.3-1.2-3.4h18.1v6.3V139.7z"/>
	</g>
</g>
<g id="Layer_1">
</g>
</svg>
