<?xml version="1.0" encoding="utf-8"?>
<!-- Generator: Adobe Illustrator 19.0.0, SVG Export Plug-In . SVG Version: 6.00 Build 0)  -->
<svg version="1.1" id="Layer_1" xmlns="http://www.w3.org/2000/svg" xmlns:xlink="http://www.w3.org/1999/xlink" x="0px" y="0px"
	 viewBox="1597.6 -531.4 400 400" style="enable-background:new 1597.6 -531.4 400 400;" xml:space="preserve">
<style type="text/css">
	.st0{fill:#5FA9DD;}
	.st1{fill:#FFFFFF;}
</style>
<g>
	<path class="st0" d="M1875.4-131.4h-156.7c-68,0-123.1-54.7-123.1-122.2v-155.6c0-67.5,55.1-122.2,123.1-122.2h156.7
		c68,0,123.1,54.7,123.1,122.2v155.6C1998.5-186.1,1943.4-131.4,1875.4-131.4z"/>
	<path id="XMLID_2_" class="st1" d="M1747.4-223.3c101.1,0,156.3-83.1,156.3-155.2c0-2.4,0-4.7-0.2-7.1
		c10.7-7.7,20.1-17.3,27.4-28.2c-9.8,4.3-20.4,7.3-31.6,8.6c11.3-6.8,20.1-17.4,24.2-30.2c-10.6,6.2-22.4,10.8-34.9,13.2
		c-10-10.6-24.3-17.2-40.1-17.2c-30.3,0-55,24.4-55,54.5c0,4.3,0.5,8.4,1.4,12.4c-45.7-2.3-86.2-24-113.2-57
		c-4.7,8.1-7.4,17.4-7.4,27.4c0,18.9,9.7,35.6,24.4,45.4c-9-0.3-17.5-2.7-24.9-6.8c0,0.2,0,0.5,0,0.7c0,26.4,18.9,48.5,44.1,53.5
		c-4.6,1.2-9.5,1.9-14.5,1.9c-3.5,0-7-0.3-10.3-1c7,21.7,27.3,37.4,51.3,37.9c-18.8,14.6-42.5,23.4-68.2,23.4
		c-4.4,0-8.8-0.3-13.1-0.8C1687.5-232.4,1716.4-223.3,1747.4-223.3"/>
</g>
</svg>
