<?xml version="1.0" encoding="utf-8"?>
<!-- Generator: Adobe Illustrator 19.0.0, SVG Export Plug-In . SVG Version: 6.00 Build 0)  -->
<svg version="1.1" id="Layer_1" xmlns="http://www.w3.org/2000/svg" xmlns:xlink="http://www.w3.org/1999/xlink" x="0px" y="0px"
	 viewBox="1597.6 -531.4 400 400" style="enable-background:new 1597.6 -531.4 400 400;" xml:space="preserve">
<style type="text/css">
	.st0{fill:#4EA346;}
	.st1{fill:#FFFFFF;}
</style>
<g>
	<path class="st0" d="M1877.3-131.4h-156.7c-68,0-123.1-54.7-123.1-122.2v-155.6c0-67.5,55.1-122.2,123.1-122.2h156.7
		c68,0,123.1,54.7,123.1,122.2v155.6C2000.4-186.1,1945.3-131.4,1877.3-131.4z"/>
	<g>
		<g id="hangout">
			<path class="st1" d="M1799-471.6c-64.8,0-117.1,52-117.1,116.3s52.4,116.3,117.1,116.3h6.9v47.9
				c67.5-31.5,110.2-102.6,110.2-164.2C1916.1-419.6,1863.8-471.6,1799-471.6z M1792.1-348.5l-13.8,27.4h-20.7l13.8-27.4h-20.7v-41
				h41.3V-348.5z M1847.2-348.5l-13.8,27.4h-20.7l13.8-27.4h-20.7v-41h41.3V-348.5z"/>
		</g>
	</g>
</g>
</svg>
