<?xml version="1.0" encoding="utf-8"?>
<!-- Generator: Adobe Illustrator 19.0.0, SVG Export Plug-In . SVG Version: 6.00 Build 0)  -->
<svg version="1.1" id="Layer_1" xmlns="http://www.w3.org/2000/svg" xmlns:xlink="http://www.w3.org/1999/xlink" x="0px" y="0px"
	 viewBox="1597.6 -531.4 400 400" style="enable-background:new 1597.6 -531.4 400 400;" xml:space="preserve">
<style type="text/css">
	.st0{fill:#70CADB;}
	.st1{fill:#E01765;}
	.st2{fill:#E8A723;}
	.st3{fill:#3EB890;}
	.st4{fill:#CC2027;}
	.st5{fill:#361238;}
	.st6{fill:#65863A;}
	.st7{fill:#1A937D;}
</style>
<g>
	<path class="st0" d="M1631.6-319.7c-14.9,0.1-27.6-8.8-32.2-22.8c-0.2-0.5-0.3-1.1-0.5-1.6c-5.1-17.9,4.8-36.6,22.4-42.6
		l283.2-95.4c3.4-1,6.8-1.5,10.3-1.5c15.3-0.1,28.3,9,33.1,23.3l0.4,1.4c5.3,18.6-7.9,35.3-23.6,40.6c0,0-2.9,1-281.6,96.7
		C1639.4-320.4,1635.5-319.7,1631.6-319.7L1631.6-319.7z"/>
	<path class="st1" d="M1678.8-179.6c-15,0.1-27.7-8.7-32.3-22.5c-0.2-0.5-0.3-1.1-0.5-1.6c-5.2-18.1,4.7-37,22.4-43l283.2-96.3
		c3.7-1.2,7.4-1.9,11.2-1.9c15.1-0.1,28.3,9.2,33,23.1l0.4,1.4c2.7,9.6,1.1,20.4-4.3,29c-4.1,6.3-16.8,11.9-16.8,11.9l-284.3,97.8
		C1687-180.3,1682.9-179.6,1678.8-179.6L1678.8-179.6z"/>
	<path class="st2" d="M1914.5-179c-15.1,0.1-28.5-9.5-33.3-23.8l-94.5-282.4l-0.5-1.6c-5.1-18,4.7-36.8,22.4-42.8
		c3.5-1.2,7.2-1.8,10.9-1.8c5.5,0,10.7,1.2,15.7,3.7c8.3,4.1,14.6,11.4,17.5,20.2l94.5,282.4l0.3,0.9c5.3,18.7-4.5,37.5-22.2,43.5
		C1921.9-179.6,1918.2-179,1914.5-179L1914.5-179z"/>
	<path class="st3" d="M1774.1-131.4c-15.1,0.1-28.5-9.5-33.3-23.9l-94.5-282.4c-6.1-18.3,3.6-38.1,21.8-44.3c0,0,0,0,0.1,0
		c3.5-1.2,7.1-1.8,10.8-1.8c15.1-0.1,28.5,9.5,33.3,23.8l94.5,282.4c6.1,18.3-3.6,38.1-21.8,44.3c0,0-0.1,0-0.1,0
		C1781.4-132,1777.7-131.4,1774.1-131.4L1774.1-131.4L1774.1-131.4z"/>
	<path class="st4" d="M1867.9-242.6l65.9-22.7l-21.5-64.4l-66,22.4L1867.9-242.6z"/>
	<path class="st5" d="M1727.7-194.3l65.9-22.7l-21.7-64.8l-66,22.4L1727.7-194.3z"/>
	<path class="st6" d="M1821-382.7l65.9-22.6l-21.3-63.6l-66,22.3L1821-382.7z"/>
	<path class="st7" d="M1680.7-334.5l65.9-22.6l-21.6-64.4l-66,22.2L1680.7-334.5z"/>
</g>
</svg>
