<?xml version="1.0" encoding="utf-8"?>
<!-- Generator: Adobe Illustrator 19.0.0, SVG Export Plug-In . SVG Version: 6.00 Build 0)  -->
<svg version="1.1" id="Layer_1" xmlns="http://www.w3.org/2000/svg" xmlns:xlink="http://www.w3.org/1999/xlink" x="0px" y="0px"
	 viewBox="1597.6 -531.4 400 400" style="enable-background:new 1597.6 -531.4 400 400;" xml:space="preserve">
<style type="text/css">
	.st0{fill:#00AFF0;}
	.st1{fill:#FFFFFF;}
</style>
<g>
	<path class="st0" d="M1877.7-131.4h-156.9c-68.1,0-123.3-54.7-123.3-122.2v-155.6c0-67.5,55.2-122.2,123.3-122.2h156.9
		c68.1,0,123.3,54.7,123.3,122.2v155.6C2001-186.1,1945.8-131.4,1877.7-131.4z"/>
	<g>
		<path class="st1" d="M1916.1-307.7c-0.1,0.4-0.1,0.9-0.2,1.3l-0.4-2.5C1915.7-308.5,1915.9-308.1,1916.1-307.7
			c1.3-7,2-14.1,2-21.3c0-15.8-3.1-31.2-9.3-45.7c-6-14-14.5-26.5-25.4-37.3c-10.9-10.8-23.5-19.2-37.6-25.2
			c-14.6-6.1-30.1-9.2-46.1-9.2c-7.5,0-15.1,0.7-22.4,2.1c0,0,0,0-0.1,0c0.4,0.2,0.8,0.4,1.2,0.6l-2.5-0.4c0.4-0.1,0.8-0.2,1.3-0.2
			c-10.1-5.3-21.4-8.1-32.9-8.1c-18.7,0-36.3,7.2-49.6,20.4c-13.2,13.1-20.5,30.6-20.5,49.1c0,11.8,3.1,23.4,8.8,33.7
			c0.1-0.4,0.1-0.9,0.2-1.3l0.4,2.5c-0.2-0.4-0.4-0.8-0.6-1.2c-1.2,6.7-1.8,13.4-1.8,20.2c0,15.9,3.1,31.2,9.3,45.7
			c6,14,14.5,26.5,25.4,37.3c10.9,10.8,23.5,19.3,37.6,25.2c14.6,6.1,30.1,9.2,46.1,9.2c7,0,13.9-0.6,20.7-1.8
			c-0.4-0.2-0.8-0.4-1.2-0.7l2.5,0.4c-0.4,0.1-0.9,0.1-1.3,0.2c10.5,5.9,22.4,9,34.5,9c18.7,0,36.3-7.2,49.6-20.4
			c13.2-13.1,20.5-30.6,20.5-49.1C1925-285.8,1921.9-297.4,1916.1-307.7L1916.1-307.7z M1800.1-257.1c-42.1,0-60.9-20.5-60.9-35.9
			c0-7.9,5.9-13.4,14-13.4c18,0,13.3,25.6,46.9,25.6c17.2,0,26.7-9.3,26.7-18.7c0-5.7-2.8-12-14.2-14.8l-37.4-9.3
			c-30.1-7.5-35.6-23.6-35.6-38.8c0-31.5,29.9-43.4,58-43.4c25.9,0,56.4,14.2,56.4,33.1c0,8.1-7.1,12.8-15.2,12.8
			c-15.4,0-12.5-21.1-43.5-21.1c-15.4,0-23.9,6.9-23.9,16.8c0,9.8,12.1,13,22.7,15.4l27.7,6.1c30.3,6.7,38,24.3,38,40.8
			C1860-276.2,1840.2-257.1,1800.1-257.1z M1819.2-214.1c0.4,0.2,0.8,0.4,1.2,0.7c0.4-0.1,0.9-0.1,1.3-0.2L1819.2-214.1z
			 M1915.9-306.4c0.1-0.4,0.1-0.9,0.2-1.3c-0.2-0.4-0.4-0.8-0.6-1.2L1915.9-306.4z M1683.3-350.5c-0.1,0.4-0.1,0.9-0.2,1.3
			c0.2,0.4,0.4,0.8,0.6,1.2L1683.3-350.5z M1778.4-443.7c-0.4-0.2-0.8-0.4-1.2-0.6c-0.4,0.1-0.8,0.2-1.3,0.2L1778.4-443.7z"/>
	</g>
</g>
</svg>
