<?xml version="1.0" encoding="utf-8"?>
<!-- Generator: Adobe Illustrator 19.0.0, SVG Export Plug-In . SVG Version: 6.00 Build 0)  -->
<svg version="1.1" id="Layer_1" xmlns="http://www.w3.org/2000/svg" xmlns:xlink="http://www.w3.org/1999/xlink" x="0px" y="0px"
	 viewBox="1597.6 -531.4 400 400" style="enable-background:new 1597.6 -531.4 400 400;" xml:space="preserve">
<style type="text/css">
	.st0{fill:#2B5080;}
	.st1{fill:#FFFFFF;}
</style>
<g>
	<path class="st0" d="M1875.3-131.4h-155.6c-67.5,0-122.2-54.7-122.2-122.2v-155.6c0-67.5,54.7-122.2,122.2-122.2h155.6
		c67.5,0,122.2,54.7,122.2,122.2v155.6C1997.6-186.1,1942.8-131.4,1875.3-131.4z"/>
	<g>
		<path class="st1" d="M1871.4-315c0-2.8-2.3-5.4-5.4-5.4c-1.2,0-2.5,0.4-3.6,1.4c-13.6,12.2-36.8,23.1-64.9,23.2h-0.1
			c-28-0.1-50.5-11.3-64.9-23.2c-0.9-0.7-2.6-1.3-3.7-1.3c-3.3,0-5.3,2.8-5.3,6c0,2.4,1.7,4.4,3.1,6.5c8,12.1,33,32.6,70.5,32.6h0.6
			c37.5,0,62.5-20.5,70.5-32.6C1869.7-309.9,1871.4-312.6,1871.4-315L1871.4-315z"/>
		<path class="st1" d="M1872.5-232.2c0.4,0.6,0.6,1,0.6,1.6c0,0.8-0.7,1.3-1.7,1.3c-6.8,0-27.7-11.3-38.6-20.5
			c-1.5-1.3-3.6-1.7-6.6-1.1c-9.2,2-18.8,3.1-28.7,3.1c-62.2,0-112.6-41.6-112.6-93c0-51.4,50.4-93,112.6-93
			c62.2,0,112.6,41.6,112.6,93c0,30.7-17.9,57.8-45.6,74.8c-1.9,1.1-3.8,3.3-3.8,5.9C1860.7-254.7,1865.8-241.2,1872.5-232.2
			L1872.5-232.2z M1908.7-220.9c-9.6-5.4-18.6-14.7-22.8-27.3c-0.8-2.5-0.1-4.5,1.8-5.9c27.6-21.4,45-52.4,45-87
			c0-64.5-60.5-116.7-135.2-116.7c-74.7,0-135.2,52.3-135.2,116.7c0,64.5,60.6,116.8,135.2,116.8c9.8,0,19.3-0.9,28.4-2.6
			c2.2-0.4,4.1,0.1,5.6,1c18.5,11.4,46.1,20.9,70.2,20.9c7.8,0,10.8-4.9,10.8-9.4C1912.6-217.3,1911-219.6,1908.7-220.9
			L1908.7-220.9z"/>
	</g>
</g>
</svg>
