<?xml version="1.0" encoding="utf-8"?>
<!-- Generator: Adobe Illustrator 19.0.0, SVG Export Plug-In . SVG Version: 6.00 Build 0)  -->
<svg version="1.1" id="Layer_1" xmlns="http://www.w3.org/2000/svg" xmlns:xlink="http://www.w3.org/1999/xlink" x="0px" y="0px"
	 viewBox="1597.6 -531.4 400 400" style="enable-background:new 1597.6 -531.4 400 400;" xml:space="preserve">
<style type="text/css">
	.st0{fill:url(#SVGID_1_);}
	.st1{fill:#FFFFFF;}
	.st2{fill:url(#SVGID_2_);}
	.st3{fill:#99CCFF;}
</style>
<g>
	<linearGradient id="SVGID_1_" gradientUnits="userSpaceOnUse" x1="1595.6954" y1="-331.3953" x2="1997.5541" y2="-331.3953">
		<stop  offset="0" style="stop-color:#42BCE8"/>
		<stop  offset="1" style="stop-color:#23A7DC"/>
	</linearGradient>
	<path class="st0" d="M1874.8-131.4h-156.3c-67.8,0-122.8-54.7-122.8-122.2v-155.6c0-67.5,55-122.2,122.8-122.2h156.3
		c67.8,0,122.8,54.7,122.8,122.2v155.6C1997.6-186.1,1942.6-131.4,1874.8-131.4z"/>
	<g>
		<path class="st1" d="M1910.3-441l-39.5,198.1c0,0-5.5,13.7-20.7,7.1l-91.1-69.5l-33.1-15.9l-55.8-18.7c0,0-8.6-3-9.4-9.6
			c-0.8-6.6,9.7-10.2,9.7-10.2l221.7-86.6C1892-446.2,1910.3-454.2,1910.3-441z"/>
		<linearGradient id="SVGID_2_" gradientUnits="userSpaceOnUse" x1="1725.8416" y1="-326.4722" x2="1867.408" y2="-326.4722">
			<stop  offset="0" style="stop-color:#42BCE8"/>
			<stop  offset="1" style="stop-color:#23A7DC"/>
		</linearGradient>
		<path class="st2" d="M1752-245.1c0,0-2.7-0.2-6-10.7c-3.3-10.4-20.2-65.4-20.2-65.4l133.9-84.6c0,0,7.7-4.7,7.5,0
			c0,0,1.4,0.8-2.8,4.7c-4.1,3.8-105.2,94.3-105.2,94.3"/>
		<path class="st3" d="M1793.9-278.6l-36,32.7c0,0-2.8,2.1-5.9,0.8l6.9-60.7"/>
	</g>
</g>
</svg>
