<?xml version="1.0" encoding="utf-8"?>
<!-- Generator: Adobe Illustrator 19.0.0, SVG Export Plug-In . SVG Version: 6.00 Build 0)  -->
<svg version="1.1" id="Layer_1" xmlns="http://www.w3.org/2000/svg" xmlns:xlink="http://www.w3.org/1999/xlink" x="0px" y="0px"
	 viewBox="1597.6 -531.4 400 400" style="enable-background:new 1597.6 -531.4 400 400;" xml:space="preserve">
<style type="text/css">
	.st0{fill:#3F6AB3;}
	.st1{fill:#FFFFFF;}
</style>
<g>
	<path class="st0" d="M1877.3-131.4h-153c-66.4,0-120.2-53.8-120.2-120.2v-153c0-66.4,53.8-120.2,120.2-120.2h153
		c66.4,0,120.2,53.8,120.2,120.2v153C1997.6-185.2,1943.7-131.4,1877.3-131.4z"/>
	<g>
		<path class="st1" d="M1800.8-448c-65.8,0-119.2,49.7-119.2,111c0,34.9,17.3,66.1,44.4,86.4v42.3l40.6-22.4
			c10.8,3,22.3,4.6,34.2,4.6c65.8,0,119.2-49.7,119.2-111S1866.6-448,1800.8-448z"/>
		<polygon class="st0" points="1818,-303.4 1787.6,-335.9 1728.4,-303.4 1793.6,-372.9 1824.7,-340.4 1883.1,-372.9 		"/>
	</g>
</g>
</svg>
