<?xml version="1.0" encoding="utf-8"?>
<!-- Generator: Adobe Illustrator 19.0.0, SVG Export Plug-In . SVG Version: 6.00 Build 0)  -->
<svg version="1.1" id="Layer_1" xmlns="http://www.w3.org/2000/svg" xmlns:xlink="http://www.w3.org/1999/xlink" x="0px" y="0px"
	 viewBox="0 0 612 223.3" style="enable-background:new 0 0 612 223.3;" xml:space="preserve">
<style type="text/css">
	.st0{fill:#27AAE1;}
	.st1{fill:#FFFFFF;}
</style>
<path id="XMLID_46_" class="st0" d="M84.2,105c14.2,4.3,29.5,9,29.5,27.5c0,17.9-16.2,26.2-32.4,26.2c-13.1,0-27.5-6.5-35.8-19.4
	l14.7-11.7c5.2,9.7,13.9,15.4,21.5,15.6c5.9,0,11.4-3.4,11.4-10.7c0-6.5-7.9-9.1-14.8-11.3c-13.1-3.9-28.1-9.6-28.1-25.5
	c0-21.6,20.7-25.3,29.6-25.3c11.9,0,22.7,4.8,30.1,12L96.7,94.9c-4.9-5.6-11.4-9-17-9c-2.9,0-9,1.4-9,9.7
	C70.8,100.8,77.6,102.8,84.2,105z"/>
<path id="XMLID_48_" class="st1" d="M146,157l-24.5-84.9h21.9l12.7,47.7l13.6-47.7h17.6l13.6,48c5.7-21.3,13.3-45.7,17.4-48h21
	C231.8,79.5,210,157,210,157h-17.4l-14-48.6l-14,48.6H146z"/>
<path id="XMLID_50_" class="st1" d="M250.9,157V30.4h20.8v51.4c8.5-6.3,19.3-11.4,30.4-11.4c16.1,0,22.5,10.3,22.5,27.3V157H304
	V97.7c0-22.5-27,1.4-32.3,6.9V157H250.9z"/>
<path id="XMLID_52_" class="st1" d="M378.9,70.4c33.6,0,36.4,31.8,36.4,38v8.3h-54.2c0,15.6,6.5,26.1,18.4,26.1
	c3.6,0,11,0.5,24.1-16.5l12.8,12c-17.1,21.1-30.1,20.4-36.9,20.4c-25.9,0-38.9-20.1-38.9-43.2C340.6,90.9,355.6,70.4,378.9,70.4z
	 M363.8,100.5h29.9c-1.7-6.6-5.9-14.2-14.8-14.2C371.6,86.3,366.8,91.8,363.8,100.5z"/>
<path id="XMLID_55_" class="st1" d="M434.8,157V72.1h20.8v10.8c8.5-6.3,19.3-12.5,30.4-12.5c16.1,0,22.5,10.3,22.5,27.3V157h-20.7
	V97.7c0-23-25.9,1.1-32.3,6.9V157H434.8z"/>
<path id="XMLID_41_" class="st0" d="M558.5,81c-4.6-7.7-10.8-14-17.3-19.5c-13.1-11-28.1-18.7-43.2-25c-30.4-12.4-62-18.8-92.6-22.5
	c-30.7-3.5-60.5-4.1-88.7-2.3c-23.3,1.5-45.4,4.5-66,8.8v4.8c20.7-3.6,42.9-6,66.3-6.9c27.8-0.9,57.3-0.1,87.3,3.9
	c30,4.1,60.8,11,89.7,23.3c14.4,6.3,28.4,13.9,40.1,24c5.8,5.1,11,10.7,14.7,17.1c3.7,6.3,5.9,13.3,6,20.3
	c0,14.2-8.8,27.4-20.3,37.3c-11.5,10.1-25.3,17.8-39.5,24.1c-28.6,12.4-59.1,19.7-88.8,24.1c-29.7,4.8-58.9,6.1-86.6,6
	c-27.6-0.3-53.8-2.3-77.7-6c-17.3-2.7-33.4-6.5-47.9-11l0,0l-34.8,7.7l-64.3,14.5l42-35.7h-7.4L77,212.9l113.3-25.6
	c14.9,5.9,31.7,11,49.8,15.1c24.2,5.5,50.8,9.2,79.3,10.1c28.3,1.1,58.4-0.5,89.1-5c30.6-4.9,62.2-12.7,92.2-26.6
	c14.9-7,29.6-15.5,42.3-27.1c6.3-5.9,12.2-12.5,16.5-20.4c2.1-4,4-8.1,5.1-12.6c0.7-2.1,1-4.6,1.4-7.1c0.4-2.6,0.2-3.9,0.4-6.7
	C566.3,97.6,563.2,88.6,558.5,81z"/>
</svg>
