<?xml version="1.0" encoding="utf-8"?>
<!-- Generator: Adobe Illustrator 19.0.0, SVG Export Plug-In . SVG Version: 6.00 Build 0)  -->
<svg version="1.1" xmlns="http://www.w3.org/2000/svg" xmlns:xlink="http://www.w3.org/1999/xlink" x="0px" y="0px"
	 viewBox="0 0 204.9 204.9" style="enable-background:new 0 0 204.9 204.9;" xml:space="preserve">
<style type="text/css">
	.st0{fill:#43BDEF;}
	.st1{fill:#FFFFFF;}
</style>
<g id="_x31_">
	<g>
		<path id="XMLID_49_" class="st0" d="M204.9,102.5c0,56.6-45.9,102.5-102.5,102.5S0,159,0,102.5C0,45.9,45.9,0,102.5,0
			S204.9,45.9,204.9,102.5z"/>
		<path id="XMLID_47_" class="st1" d="M163.1,71.2c-4.5,2-9.3,3.3-14.3,3.9c5.1-3,9.1-7.8,11-13.6c-4.8,2.8-10.1,4.9-15.8,6
			c-4.5-4.8-11-7.7-18.2-7.7c-13.7,0-24.9,11-24.9,24.5c0,1.9,0.2,3.8,0.6,5.6c-20.7-1-39-10.8-51.3-25.6c-2.1,3.6-3.4,7.8-3.4,12.3
			c0,8.5,4.4,16,11.1,20.4c-4.1-0.1-7.9-1.2-11.3-3.1c0,0.1,0,0.2,0,0.3c0,3.1,0.6,6.1,1.7,8.9c3,7.7,9.9,13.5,18.3,15.2
			c-2.1,0.6-4.3,0.9-6.6,0.9c-1.6,0-3.2-0.2-4.7-0.4c3.2,9.7,12.4,16.8,23.3,17c-8.5,6.6-19.3,10.5-30.9,10.5c-2,0-4-0.1-5.9-0.3
			c11,7,24.1,11,38.2,11c38.9,0,62.8-27,69.2-54.9c1.1-4.9,1.7-9.9,1.7-14.8c0-1.1,0-2.1-0.1-3.2C155.6,80.4,159.8,76.1,163.1,71.2z
			"/>
	</g>
</g>
<g id="Layer_1">
</g>
</svg>
